<?xml version="1.0" encoding="utf-8"?>
<!-- Generator: Adobe Illustrator 21.0.0, SVG Export Plug-In . SVG Version: 6.00 Build 0)  -->
<svg version="1.1" id="Layer_1" xmlns="http://www.w3.org/2000/svg" xmlns:xlink="http://www.w3.org/1999/xlink" x="0px" y="0px"
	 width="3000px" height="2000px" viewBox="0 0 3000 2000" style="enable-background:new 0 0 3000 2000;" xml:space="preserve">
<style type="text/css">
	.st0{fill:#344F6A;}
	.st1{fill:#B4C1D6;}
	.st2{fill:#F4466B;}
	.st3{fill:#BDBEC0;}
	.st4{fill:#FAFAFA;}
	.st5{fill:#FFFFFF;}
</style>
<g>
	<polygon class="st0" points="0,853 472.1,1033.5 1721,0 0,0 	"/>
	<g>
		<g>
			<polygon class="st1" points="417.5,1012.6 446,1023.5 446,0 417.5,0 			"/>
			<polygon class="st1" points="599.5,928.1 628,904.5 628,0 599.5,0 			"/>
			<polygon class="st1" points="508.5,1003.4 537,979.8 537,0 508.5,0 			"/>
			<polygon class="st1" points="326.5,977.8 355,988.7 355,0 326.5,0 			"/>
			<polygon class="st1" points="53.5,873.5 82,884.4 82,0 53.5,0 			"/>
			<polygon class="st1" points="144.5,908.3 173,919.1 173,0 144.5,0 			"/>
			<polygon class="st1" points="690.5,852.8 719,829.2 719,0 690.5,0 			"/>
			<polygon class="st1" points="235.5,943 264,953.9 264,0 235.5,0 			"/>
			<polygon class="st1" points="1418.5,250.3 1447,226.8 1447,0 1418.5,0 			"/>
			<polygon class="st1" points="1145.5,476.3 1174,452.7 1174,0 1145.5,0 			"/>
			<polygon class="st1" points="1327.5,325.6 1356,302.1 1356,0 1327.5,0 			"/>
			<polygon class="st1" points="781.5,777.5 810,753.9 810,0 781.5,0 			"/>
			<polygon class="st1" points="1509.5,175 1538,151.4 1538,0 1509.5,0 			"/>
			<polygon class="st1" points="1236.5,401 1265,377.4 1265,0 1236.5,0 			"/>
			<polygon class="st1" points="872.5,702.2 901,678.6 901,0 872.5,0 			"/>
			<polygon class="st1" points="1054.5,551.6 1083,528 1083,0 1054.5,0 			"/>
			<polygon class="st1" points="963.5,626.9 992,603.3 992,0 963.5,0 			"/>
		</g>
	</g>
	<polygon class="st2" points="0,853 0,2000 3000,2000 15.3,858.9 	"/>
	<polygon class="st3" points="3000,2000 3000,0 1377,0 	"/>
	<g>
		<g>
			<g>
				<path class="st4" d="M160.7,1736.5c-1,3.1-2,6.7-3,10.8h-0.3c-0.6-3.6-1.4-7.2-2.7-10.7l-15.3-44.5h-24.7v75h15.2v-41.5
					c0-5.6-0.2-12.1-0.7-19.5h0.5c1.1,5.6,1.9,9.1,2.4,10.5l17.9,50.5h13.8l17.6-51c0.7-2,1.5-5.3,2.4-9.9h0.4
					c-0.4,5.9-0.6,11.2-0.6,16.1v44.9h16.7v-75h-24.1L160.7,1736.5z"/>
				<polygon class="st4" points="255.6,1736.3 280.1,1736.3 280.1,1722.6 255.6,1722.6 255.6,1705.9 281.9,1705.9 281.9,1692.2 
					238.7,1692.2 238.7,1767.2 283.6,1767.2 283.6,1753.5 255.6,1753.5 				"/>
				<path class="st4" d="M363.1,1736.5c-1,3.1-2,6.7-3,10.8h-0.3c-0.6-3.6-1.4-7.2-2.7-10.7l-15.3-44.5h-24.7v75h15.2v-41.5
					c0-5.6-0.2-12.1-0.7-19.5h0.5c1.1,5.6,1.9,9.1,2.4,10.5l17.9,50.5h13.8l17.6-51c0.7-2,1.5-5.3,2.4-9.9h0.4
					c-0.4,5.9-0.6,11.2-0.6,16.1v44.9h16.7v-75h-24.1L363.1,1736.5z"/>
				<path class="st4" d="M467.5,1692.2H441v75h16.9v-25.8h8.1c9.1,0,16.3-2.3,21.7-7c5.4-4.7,8.1-10.7,8.1-18.3
					C495.8,1700.1,486.4,1692.2,467.5,1692.2z M464.6,1728.5h-6.6v-23.4h6.6c9,0,13.5,3.9,13.5,11.6
					C478.1,1724.6,473.6,1728.5,464.6,1728.5z"/>
				<polygon class="st4" points="576.2,1722.1 545.1,1722.1 545.1,1692.2 528.3,1692.2 528.3,1767.2 545.1,1767.2 545.1,1736.6 
					576.2,1736.6 576.2,1767.2 593.2,1767.2 593.2,1692.2 576.2,1692.2 				"/>
				<polygon class="st4" points="625.5,1705.3 631.7,1705.3 631.7,1754.1 625.5,1754.1 625.5,1767.2 654.9,1767.2 654.9,1754.1 
					648.6,1754.1 648.6,1705.3 654.9,1705.3 654.9,1692.2 625.5,1692.2 				"/>
				<path class="st4" d="M729.5,1732c-1.7-1.8-3.8-3.4-6.1-4.8c-2.4-1.4-5.1-2.7-8.1-4c-2.2-0.9-4.2-1.8-5.9-2.6
					c-1.7-0.9-3.2-1.7-4.4-2.6c-1.2-0.9-2.2-1.8-2.8-2.8c-0.7-1-1-2.1-1-3.4c0-1.2,0.3-2.2,0.9-3.1c0.6-0.9,1.4-1.7,2.5-2.4
					c1.1-0.7,2.4-1.2,4-1.5c1.6-0.4,3.3-0.5,5.2-0.5c1.4,0,2.9,0.1,4.4,0.3c1.6,0.2,3.1,0.5,4.7,1c1.6,0.4,3.1,1,4.6,1.6
					c1.5,0.7,2.9,1.4,4.1,2.3v-15.6c-2.5-1-5.3-1.7-8.3-2.2c-3-0.5-6.5-0.7-10.4-0.7c-4,0-7.7,0.4-11.3,1.3c-3.6,0.9-6.7,2.2-9.4,4
					c-2.7,1.8-4.8,4.1-6.4,6.9c-1.6,2.8-2.4,6.2-2.4,10.1c0,5,1.4,9.2,4.3,12.8c2.9,3.5,7.2,6.5,13.1,8.9c2.3,0.9,4.4,1.9,6.4,2.8
					c2,0.9,3.7,1.8,5.2,2.8c1.4,1,2.6,2,3.4,3.2c0.8,1.2,1.3,2.5,1.3,3.9c0,1.1-0.3,2.1-0.8,3c-0.5,0.9-1.3,1.7-2.4,2.4
					c-1.1,0.7-2.4,1.2-4,1.6c-1.6,0.4-3.4,0.6-5.6,0.6c-3.6,0-7.2-0.6-10.8-1.9c-3.6-1.3-6.9-3.2-9.9-5.7v16.7
					c2.7,1.4,5.9,2.4,9.6,3.1c3.7,0.7,7.6,1,11.7,1c4,0,7.8-0.4,11.4-1.2c3.6-0.8,6.8-2,9.5-3.8c2.7-1.8,4.9-4.1,6.5-6.9
					c1.6-2.8,2.4-6.4,2.4-10.5c0-3-0.5-5.7-1.4-8C732.5,1735.8,731.2,1733.8,729.5,1732z"/>
			</g>
		</g>
		<g>
			<g>
				<path class="st4" d="M153.5,1826.9v-0.2c4.3-1.2,7.7-3.3,10.5-6.3c2.7-3,4.1-6.6,4.1-10.6c0-5.6-2.2-9.9-6.7-13
					c-4.5-3.1-10.9-4.6-19.3-4.6h-27.3v75h28.8c8.5,0,15.2-2,20.1-6c4.9-4,7.4-9.5,7.4-16.3c0-4.7-1.6-8.7-4.8-12
					C163.1,1829.6,158.8,1827.6,153.5,1826.9z M131.6,1804.7h6.3c8.2,0,12.3,2.8,12.3,8.3c0,3-1,5.3-3,7c-2,1.7-4.8,2.5-8.2,2.5
					h-7.4V1804.7z M149.9,1852c-2.2,1.8-5.3,2.7-9.2,2.7h-9.2V1835h9.3c3.9,0,6.9,0.9,9.1,2.6c2.2,1.7,3.3,4.1,3.3,7.1
					C153.3,1847.7,152.2,1850.2,149.9,1852z"/>
				<path class="st4" d="M224.1,1792.2l-27.3,75h18.3l5.3-16.7H247l5.3,16.7h18.4l-26.7-75H224.1z M224,1837.5l8.2-25.4
					c0.7-2.2,1.1-4.3,1.3-6.5h0.4c0.2,2.6,0.7,4.9,1.3,6.7l8.1,25.2H224z"/>
				<path class="st4" d="M308,1802.1c-7.4,7.5-11.1,17.2-11.1,29.2c0,11.3,3.3,20.3,9.9,27c6.6,6.8,15.6,10.1,27.1,10.1
					c8.8,0,16-1.3,21.4-4v-15.4c-5.5,3.2-11.5,4.8-18.1,4.8c-6.9,0-12.4-2.2-16.5-6.5c-4.1-4.3-6.1-10.1-6.1-17.3
					c0-7.6,2.2-13.6,6.5-18c4.3-4.4,10-6.6,17.1-6.6c6.4,0,12.1,1.5,17.2,4.5v-16.3c-5-1.8-11.2-2.8-18.5-2.8
					C325,1790.9,315.4,1794.7,308,1802.1z"/>
				<path class="st4" d="M449.9,1792.2h-20.1l-20.7,31.3c-1,1.8-1.7,3.2-2.1,4.2h-0.3v-35.5h-16.9v75h16.9v-36.7h0.3
					c0.9,2.1,1.6,3.5,2,4.1l21.9,32.6h21.3l-28.4-39.2L449.9,1792.2z"/>
				<path class="st4" d="M510.4,1838h15v14.6c-2.4,1.2-5.6,1.7-9.6,1.7c-6.7,0-12.1-2.1-16-6.3c-4-4.2-5.9-10.2-5.9-17.9
					c0-7.6,2.2-13.7,6.6-18.2c4.4-4.6,10.1-6.8,17.1-6.8c8.4,0,15.4,1.7,21.2,5v-15.8c-6.1-2.2-13.1-3.3-21-3.3
					c-12.6,0-22.7,3.7-30.3,11.1c-7.6,7.4-11.4,17-11.4,28.8c0,11.7,3.5,20.9,10.4,27.6c7,6.7,16.5,10,28.5,10
					c10.9,0,20-2.1,27.3-6.3v-37.7h-31.9V1838z"/>
				<path class="st4" d="M624.7,1841.5c-0.9-1.2-1.8-2.3-2.8-3.4c-1-1-2-2-3-2.7c-1-0.8-2.1-1.4-3.2-1.7v-0.2c2.5-0.7,4.9-1.7,6.9-3
					c2.1-1.3,3.8-2.8,5.3-4.6c1.5-1.8,2.6-3.8,3.4-6c0.8-2.2,1.2-4.6,1.2-7.2c0-13.6-9.1-20.4-27.3-20.4h-26.8v75h16.9v-28.7h4.6
					c1,0,2,0.2,2.9,0.7c0.9,0.4,1.7,1.1,2.6,1.9c0.8,0.8,1.6,1.8,2.4,3c0.8,1.2,1.6,2.5,2.5,3.9l11.7,19.3h19.4l-14.2-22.2
					C626.4,1843.9,625.5,1842.7,624.7,1841.5z M611.3,1822.6c-2.2,2.1-5.1,3.1-8.7,3.1h-7.3v-20.9h7.6c7.8,0,11.8,3.3,11.8,9.8
					C614.6,1817.8,613.5,1820.5,611.3,1822.6z"/>
				<path class="st4" d="M702.6,1790.9c-11.3,0-20.4,3.7-27.3,11c-6.9,7.3-10.3,16.9-10.3,28.8c0,11.2,3.4,20.3,10.1,27.3
					c6.8,7,15.5,10.5,26.3,10.5c11,0,20-3.6,26.8-10.8c6.9-7.2,10.3-16.7,10.3-28.5c0-11.5-3.3-20.7-9.9-27.7
					C721.9,1794.5,713.3,1790.9,702.6,1790.9z M715.6,1847.6c-3.4,4.2-8,6.3-13.9,6.3c-5.6,0-10.2-2.2-13.7-6.5
					c-3.5-4.3-5.2-10.2-5.2-17.6c0-7.3,1.7-13.2,5.2-17.7c3.5-4.4,8.2-6.7,14.1-6.7c5.8,0,10.3,2.2,13.6,6.5c3.3,4.3,5,10.4,5,18.2
					C720.7,1837.6,719,1843.4,715.6,1847.6z"/>
				<path class="st4" d="M816.6,1836.3c0,11.7-4.7,17.6-14,17.6c-9.5,0-14.2-6.1-14.2-18.2v-43.5h-16.9v43.3c0,22,10.2,33,30.5,33
					c21,0,31.5-11.3,31.5-33.8v-42.5h-16.9V1836.3z"/>
				<path class="st4" d="M922.7,1833.7c0,5.1,0.1,8.6,0.4,10.3H923c-1.2-2-2.4-4.1-3.8-6.1l-29.8-45.7h-18.2v75h16V1826
					c0-5.4-0.1-9.5-0.4-12.1h0.2c0.7,1.4,2,3.5,3.8,6.2l30.9,47.1h17.1v-75h-16V1833.7z"/>
				<path class="st4" d="M1003.8,1792.2h-26.6v75h26.6c12.1,0,21.8-3.5,29.1-10.5s10.9-16.3,10.9-28
					C1043.8,1804.4,1030.5,1792.2,1003.8,1792.2z M1019.8,1846.9c-4.2,4.4-9.9,6.6-17.2,6.6h-8.4V1806h8.3c7.5,0,13.3,2,17.4,6.1
					c4.1,4.1,6.2,9.7,6.2,16.9C1026,1836.5,1023.9,1842.5,1019.8,1846.9z"/>
			</g>
		</g>
	</g>
	<polygon class="st0" points="3000,2000 3000,1321 1641,2000 	"/>
	<circle class="st3" cx="1426.6" cy="539.9" r="174.3"/>
	<circle class="st2" cx="1482.4" cy="1164" r="174.3"/>
	<path class="st2" d="M3000,442.2V0h-957.3C2045,0,3000,442.2,3000,442.2z"/>
	<g>
		<g>
			<circle class="st0" cx="2876.4" cy="100.2" r="11.6"/>
			<circle class="st0" cx="2876.4" cy="175.4" r="11.6"/>
			<circle class="st0" cx="2876.4" cy="250.6" r="11.6"/>
			<circle class="st0" cx="2876.4" cy="325.9" r="11.6"/>
			<circle class="st0" cx="2876.4" cy="401.1" r="11.6"/>
			<circle class="st0" cx="2876.4" cy="476.3" r="11.6"/>
			<circle class="st0" cx="2876.4" cy="551.6" r="11.6"/>
			<circle class="st0" cx="2876.4" cy="626.8" r="11.6"/>
			<circle class="st0" cx="2876.4" cy="702" r="11.6"/>
			<circle class="st0" cx="2876.4" cy="777.3" r="11.6"/>
			<circle class="st0" cx="2876.4" cy="852.5" r="11.6"/>
			<circle class="st0" cx="2876.4" cy="927.7" r="11.6"/>
			<circle class="st0" cx="2876.4" cy="1003" r="11.6"/>
			<circle class="st0" cx="2818.2" cy="100.2" r="11.6"/>
			<circle class="st0" cx="2818.2" cy="175.4" r="11.6"/>
			<circle class="st0" cx="2818.2" cy="250.6" r="11.6"/>
			<circle class="st0" cx="2818.2" cy="325.9" r="11.6"/>
			<circle class="st0" cx="2818.2" cy="401.1" r="11.6"/>
			<circle class="st0" cx="2818.2" cy="476.3" r="11.6"/>
			<circle class="st0" cx="2818.2" cy="551.6" r="11.6"/>
			<circle class="st0" cx="2818.2" cy="626.8" r="11.6"/>
			<circle class="st0" cx="2818.2" cy="702" r="11.6"/>
			<circle class="st0" cx="2818.2" cy="777.3" r="11.6"/>
			<circle class="st0" cx="2818.2" cy="852.5" r="11.6"/>
			<circle class="st0" cx="2818.2" cy="927.7" r="11.6"/>
			<circle class="st0" cx="2818.2" cy="1003" r="11.6"/>
			<circle class="st0" cx="2760.1" cy="100.2" r="11.6"/>
			<circle class="st0" cx="2760.1" cy="175.4" r="11.6"/>
			<circle class="st0" cx="2760.1" cy="250.6" r="11.6"/>
			<circle class="st0" cx="2760.1" cy="325.9" r="11.6"/>
			<circle class="st0" cx="2760.1" cy="401.1" r="11.6"/>
			<circle class="st0" cx="2760.1" cy="476.3" r="11.6"/>
			<circle class="st0" cx="2760.1" cy="551.6" r="11.6"/>
			<circle class="st0" cx="2760.1" cy="626.8" r="11.6"/>
			<circle class="st0" cx="2760.1" cy="702" r="11.6"/>
			<circle class="st0" cx="2760.1" cy="777.3" r="11.6"/>
			<circle class="st0" cx="2760.1" cy="852.5" r="11.6"/>
			<circle class="st0" cx="2760.1" cy="927.7" r="11.6"/>
			<circle class="st0" cx="2760.1" cy="1003" r="11.6"/>
			<circle class="st0" cx="2701.9" cy="100.2" r="11.6"/>
			<circle class="st0" cx="2701.9" cy="175.4" r="11.6"/>
			<circle class="st0" cx="2701.9" cy="250.6" r="11.6"/>
			<circle class="st0" cx="2701.9" cy="325.9" r="11.6"/>
			<circle class="st0" cx="2701.9" cy="401.1" r="11.6"/>
			<circle class="st0" cx="2701.9" cy="476.3" r="11.6"/>
			<circle class="st0" cx="2701.9" cy="551.6" r="11.6"/>
			<circle class="st0" cx="2701.9" cy="626.8" r="11.6"/>
			<circle class="st0" cx="2701.9" cy="702" r="11.6"/>
			<circle class="st0" cx="2701.9" cy="777.3" r="11.6"/>
			<circle class="st0" cx="2701.9" cy="852.5" r="11.6"/>
			<circle class="st0" cx="2701.9" cy="927.7" r="11.6"/>
			<circle class="st0" cx="2701.9" cy="1003" r="11.6"/>
			<circle class="st0" cx="2643.7" cy="100.2" r="11.6"/>
			<circle class="st0" cx="2643.7" cy="175.4" r="11.6"/>
			<circle class="st0" cx="2643.7" cy="250.6" r="11.6"/>
			<circle class="st0" cx="2643.7" cy="325.9" r="11.6"/>
			<circle class="st0" cx="2643.7" cy="401.1" r="11.6"/>
			<circle class="st0" cx="2643.7" cy="476.3" r="11.6"/>
			<circle class="st0" cx="2643.7" cy="551.6" r="11.6"/>
			<circle class="st0" cx="2643.7" cy="626.8" r="11.6"/>
			<circle class="st0" cx="2643.7" cy="702" r="11.6"/>
			<circle class="st0" cx="2643.7" cy="777.3" r="11.6"/>
			<circle class="st0" cx="2643.7" cy="852.5" r="11.6"/>
			<circle class="st0" cx="2643.7" cy="927.7" r="11.6"/>
			<circle class="st0" cx="2643.7" cy="1003" r="11.6"/>
			<circle class="st0" cx="2585.6" cy="100.2" r="11.6"/>
			<circle class="st0" cx="2585.6" cy="175.4" r="11.6"/>
			<circle class="st0" cx="2585.6" cy="250.6" r="11.6"/>
			<circle class="st0" cx="2585.6" cy="325.9" r="11.6"/>
			<circle class="st0" cx="2585.6" cy="401.1" r="11.6"/>
			<circle class="st0" cx="2585.6" cy="476.3" r="11.6"/>
			<circle class="st0" cx="2585.6" cy="551.6" r="11.6"/>
			<circle class="st0" cx="2585.6" cy="626.8" r="11.6"/>
			<circle class="st0" cx="2585.6" cy="702" r="11.6"/>
			<circle class="st0" cx="2585.6" cy="777.3" r="11.6"/>
			<circle class="st0" cx="2585.6" cy="852.5" r="11.6"/>
			<circle class="st0" cx="2585.6" cy="927.7" r="11.6"/>
			<circle class="st0" cx="2585.6" cy="1003" r="11.6"/>
			<circle class="st0" cx="2527.4" cy="100.2" r="11.6"/>
			<circle class="st0" cx="2527.4" cy="175.4" r="11.6"/>
			<circle class="st0" cx="2527.4" cy="250.6" r="11.6"/>
			<circle class="st0" cx="2527.4" cy="325.9" r="11.6"/>
			<circle class="st0" cx="2527.4" cy="401.1" r="11.6"/>
			<circle class="st0" cx="2527.4" cy="476.3" r="11.6"/>
			<circle class="st0" cx="2527.4" cy="551.6" r="11.6"/>
			<circle class="st0" cx="2527.4" cy="626.8" r="11.6"/>
			<circle class="st0" cx="2527.4" cy="702" r="11.6"/>
			<circle class="st0" cx="2527.4" cy="777.3" r="11.6"/>
			<circle class="st0" cx="2527.4" cy="852.5" r="11.6"/>
			<circle class="st0" cx="2527.4" cy="927.7" r="11.6"/>
			<circle class="st0" cx="2527.4" cy="1003" r="11.6"/>
			<circle class="st0" cx="2469.3" cy="100.2" r="11.6"/>
			<circle class="st0" cx="2469.3" cy="175.4" r="11.6"/>
			<circle class="st0" cx="2469.3" cy="250.6" r="11.6"/>
			<circle class="st0" cx="2469.3" cy="325.9" r="11.6"/>
			<circle class="st0" cx="2469.3" cy="401.1" r="11.6"/>
			<circle class="st0" cx="2469.3" cy="476.3" r="11.6"/>
			<circle class="st0" cx="2469.3" cy="551.6" r="11.6"/>
			<circle class="st0" cx="2469.3" cy="626.8" r="11.6"/>
			<circle class="st0" cx="2469.3" cy="702" r="11.6"/>
			<circle class="st0" cx="2469.3" cy="777.3" r="11.6"/>
			<circle class="st0" cx="2469.3" cy="852.5" r="11.6"/>
			<circle class="st0" cx="2469.3" cy="927.7" r="11.6"/>
			<circle class="st0" cx="2469.3" cy="1003" r="11.6"/>
		</g>
	</g>
	<g>
		<g>
			<circle class="st3" cx="643.2" cy="1117.5" r="11.6"/>
			<circle class="st3" cx="718.5" cy="1117.5" r="11.6"/>
			<circle class="st3" cx="793.7" cy="1117.5" r="11.6"/>
			<circle class="st3" cx="868.9" cy="1117.5" r="11.6"/>
			<circle class="st3" cx="944.2" cy="1117.5" r="11.6"/>
			<circle class="st3" cx="1019.4" cy="1117.5" r="11.6"/>
			<circle class="st3" cx="1094.6" cy="1117.5" r="11.6"/>
			<circle class="st3" cx="1169.9" cy="1117.5" r="11.6"/>
			<circle class="st3" cx="1245.1" cy="1117.5" r="11.6"/>
			<circle class="st3" cx="1320.3" cy="1117.5" r="11.6"/>
			<circle class="st3" cx="1395.6" cy="1117.5" r="11.6"/>
			<circle class="st3" cx="1470.8" cy="1117.5" r="11.6"/>
			<circle class="st3" cx="1546" cy="1117.5" r="11.6"/>
			<circle class="st3" cx="643.2" cy="1175.6" r="11.6"/>
			<circle class="st3" cx="718.5" cy="1175.6" r="11.6"/>
			<circle class="st3" cx="793.7" cy="1175.6" r="11.6"/>
			<circle class="st3" cx="868.9" cy="1175.6" r="11.6"/>
			<circle class="st3" cx="944.2" cy="1175.6" r="11.6"/>
			<circle class="st3" cx="1019.4" cy="1175.6" r="11.6"/>
			<circle class="st3" cx="1094.6" cy="1175.6" r="11.6"/>
			<circle class="st3" cx="1169.9" cy="1175.6" r="11.6"/>
			<circle class="st3" cx="1245.1" cy="1175.6" r="11.6"/>
			<circle class="st3" cx="1320.3" cy="1175.6" r="11.6"/>
			<circle class="st3" cx="1395.6" cy="1175.6" r="11.6"/>
			<circle class="st3" cx="1470.8" cy="1175.6" r="11.6"/>
			<circle class="st3" cx="1546" cy="1175.6" r="11.6"/>
			<circle class="st3" cx="643.2" cy="1233.8" r="11.6"/>
			<circle class="st3" cx="718.5" cy="1233.8" r="11.6"/>
			<circle class="st3" cx="793.7" cy="1233.8" r="11.6"/>
			<circle class="st3" cx="868.9" cy="1233.8" r="11.6"/>
			<circle class="st3" cx="944.2" cy="1233.8" r="11.6"/>
			<circle class="st3" cx="1019.4" cy="1233.8" r="11.6"/>
			<circle class="st3" cx="1094.6" cy="1233.8" r="11.6"/>
			<circle class="st3" cx="1169.9" cy="1233.8" r="11.6"/>
			<circle class="st3" cx="1245.1" cy="1233.8" r="11.6"/>
			<circle class="st3" cx="1320.3" cy="1233.8" r="11.6"/>
			<circle class="st3" cx="1395.6" cy="1233.8" r="11.6"/>
			<circle class="st3" cx="1470.8" cy="1233.8" r="11.6"/>
			<circle class="st3" cx="1546" cy="1233.8" r="11.6"/>
			<circle class="st3" cx="643.2" cy="1291.9" r="11.6"/>
			<circle class="st3" cx="718.5" cy="1291.9" r="11.6"/>
			<circle class="st3" cx="793.7" cy="1291.9" r="11.6"/>
			<circle class="st3" cx="868.9" cy="1291.9" r="11.6"/>
			<circle class="st3" cx="944.2" cy="1291.9" r="11.6"/>
			<circle class="st3" cx="1019.4" cy="1291.9" r="11.6"/>
			<circle class="st3" cx="1094.6" cy="1291.9" r="11.6"/>
			<circle class="st3" cx="1169.9" cy="1291.9" r="11.6"/>
			<circle class="st3" cx="1245.1" cy="1291.9" r="11.6"/>
			<circle class="st3" cx="1320.3" cy="1291.9" r="11.6"/>
			<circle class="st3" cx="1395.6" cy="1291.9" r="11.6"/>
			<circle class="st3" cx="1470.8" cy="1291.9" r="11.6"/>
			<circle class="st3" cx="1546" cy="1291.9" r="11.6"/>
			<circle class="st3" cx="643.2" cy="1350.1" r="11.6"/>
			<circle class="st3" cx="718.5" cy="1350.1" r="11.6"/>
			<circle class="st3" cx="793.7" cy="1350.1" r="11.6"/>
			<circle class="st3" cx="868.9" cy="1350.1" r="11.6"/>
			<circle class="st3" cx="944.2" cy="1350.1" r="11.6"/>
			<circle class="st3" cx="1019.4" cy="1350.1" r="11.6"/>
			<circle class="st3" cx="1094.6" cy="1350.1" r="11.6"/>
			<circle class="st3" cx="1169.9" cy="1350.1" r="11.6"/>
			<circle class="st3" cx="1245.1" cy="1350.1" r="11.6"/>
			<circle class="st3" cx="1320.3" cy="1350.1" r="11.6"/>
			<circle class="st3" cx="1395.6" cy="1350.1" r="11.6"/>
			<circle class="st3" cx="1470.8" cy="1350.1" r="11.6"/>
			<circle class="st3" cx="1546" cy="1350.1" r="11.6"/>
			<circle class="st3" cx="643.2" cy="1408.2" r="11.6"/>
			<circle class="st3" cx="718.5" cy="1408.2" r="11.6"/>
			<circle class="st3" cx="793.7" cy="1408.2" r="11.6"/>
			<circle class="st3" cx="868.9" cy="1408.2" r="11.6"/>
			<circle class="st3" cx="944.2" cy="1408.2" r="11.6"/>
			<circle class="st3" cx="1019.4" cy="1408.2" r="11.6"/>
			<circle class="st3" cx="1094.6" cy="1408.2" r="11.6"/>
			<circle class="st3" cx="1169.9" cy="1408.2" r="11.6"/>
			<circle class="st3" cx="1245.1" cy="1408.2" r="11.6"/>
			<circle class="st3" cx="1320.3" cy="1408.2" r="11.6"/>
			<circle class="st3" cx="1395.6" cy="1408.2" r="11.6"/>
			<circle class="st3" cx="1470.8" cy="1408.2" r="11.6"/>
			<circle class="st3" cx="1546" cy="1408.2" r="11.6"/>
			<circle class="st3" cx="643.2" cy="1466.4" r="11.6"/>
			<circle class="st3" cx="718.5" cy="1466.4" r="11.6"/>
			<circle class="st3" cx="793.7" cy="1466.4" r="11.6"/>
			<circle class="st3" cx="868.9" cy="1466.4" r="11.6"/>
			<circle class="st3" cx="944.2" cy="1466.4" r="11.6"/>
			<circle class="st3" cx="1019.4" cy="1466.4" r="11.6"/>
			<circle class="st3" cx="1094.6" cy="1466.4" r="11.6"/>
			<circle class="st3" cx="1169.9" cy="1466.4" r="11.6"/>
			<circle class="st3" cx="1245.1" cy="1466.4" r="11.6"/>
			<circle class="st3" cx="1320.3" cy="1466.4" r="11.6"/>
			<circle class="st3" cx="1395.6" cy="1466.4" r="11.6"/>
			<circle class="st3" cx="1470.8" cy="1466.4" r="11.6"/>
			<circle class="st3" cx="1546" cy="1466.4" r="11.6"/>
			<circle class="st3" cx="643.2" cy="1524.5" r="11.6"/>
			<circle class="st3" cx="718.5" cy="1524.5" r="11.6"/>
			<circle class="st3" cx="793.7" cy="1524.5" r="11.6"/>
			<circle class="st3" cx="868.9" cy="1524.5" r="11.6"/>
			<circle class="st3" cx="944.2" cy="1524.5" r="11.6"/>
			<circle class="st3" cx="1019.4" cy="1524.5" r="11.6"/>
			<circle class="st3" cx="1094.6" cy="1524.5" r="11.6"/>
			<circle class="st3" cx="1169.9" cy="1524.5" r="11.6"/>
			<circle class="st3" cx="1245.1" cy="1524.5" r="11.6"/>
			<circle class="st3" cx="1320.3" cy="1524.5" r="11.6"/>
			<circle class="st3" cx="1395.6" cy="1524.5" r="11.6"/>
			<circle class="st3" cx="1470.8" cy="1524.5" r="11.6"/>
			<circle class="st3" cx="1546" cy="1524.5" r="11.6"/>
		</g>
	</g>
	<polygon class="st0" points="2026.8,899 2026.8,1033.1 2142.9,1100.1 2259,1033.1 2259,899 2142.9,832 	"/>
	<polygon class="st3" points="2679.9,1570 2564.3,1675.6 2597.9,1828.5 2747.1,1875.9 2862.8,1770.3 2829.2,1617.4 	"/>
	<polygon class="st2" points="2299,344 2150.6,279.1 2020.1,375.2 2037.8,534.3 2038.1,536.3 2186.5,601.2 2317,505.1 2299.3,346.1 
			"/>
	<path class="st5" d="M2881.1,1609.5l-154.2-51l-121.3,108l32.5,157.1l0.4,2l154.2,51l121.3-108l-32.5-157.1L2881.1,1609.5z
		 M2791.1,1868.7l-146.5-48.5l-31.3-151.1l115.3-102.7l146.5,48.5l31.3,151.1L2791.1,1868.7z"/>
	<polygon class="st3" points="460.1,1165.7 294,1311.1 497.2,1397.4 478.7,1281.5 	"/>
	<polygon class="st0" points="161.7,1291.9 201.8,1509 379.8,1378.4 270.8,1335.2 	"/>
	<path class="st2" d="M1981,838.1l187.5-124.6l-193.1-87.2L1981,838.1z M2154.1,714.6l-166.5,110.6l-5-188L2154.1,714.6z"/>
	<path class="st2" d="M2217.7,1185.5l205.5,51.5l-43.1-207.5L2217.7,1185.5z M2231.7,1181.8l144.2-138.4l38.3,184.1L2231.7,1181.8z"
		/>
	<path class="st5" d="M262.4,1269.8l198.4,74.5l-19.3-211L262.4,1269.8z M276.7,1267.7l158.9-121.2l17.1,187.3L276.7,1267.7z"/>
	<path class="st5" d="M146.2,1519.3l158.7-140.4l-195.5-81.7L146.2,1519.3z M151,1505.7l-32.7-197.2l173.5,72.5L151,1505.7z"/>
	<g>
		<g>
			<polygon class="st2" points="1603.1,237.8 1686.5,616.1 1711.7,625.1 1622.2,219.1 			"/>
			<polygon class="st2" points="1638.4,203.1 1733.1,632.8 1758.3,641.7 1657.5,184.4 			"/>
			<polygon class="st2" points="1567.8,272.6 1639.9,599.4 1665,608.4 1586.9,253.8 			"/>
			<polygon class="st2" points="1673.8,168.4 1779.8,649.4 1804.9,658.4 1692.8,149.7 			"/>
			<polygon class="st2" points="1709.1,133.7 1826.4,666.1 1851.6,675.1 1728.1,114.9 			"/>
			<polygon class="st2" points="1744.4,98.9 1873,682.8 1898.2,691.7 1763.4,80.2 			"/>
			<polygon class="st2" points="1532.5,307.3 1593.2,582.8 1618.4,591.7 1551.6,288.6 			"/>
			<polygon class="st2" points="1497.2,342 1546.6,566.1 1571.8,575.1 1516.3,323.3 			"/>
			<polygon class="st2" points="1391.3,446.2 1406.7,516.1 1431.9,525.1 1410.4,427.5 			"/>
			<polygon class="st2" points="1356,480.9 1360.1,499.4 1385.2,508.4 1375.1,462.2 			"/>
			<polygon class="st2" points="1426.6,411.5 1453.3,532.8 1478.5,541.7 1445.7,392.7 			"/>
			<polygon class="st2" points="1461.9,376.7 1500,549.4 1525.1,558.4 1481,358 			"/>
		</g>
	</g>
	<path class="st0" d="M2271.6,410.4l-148.5-65l-130.5,96.1l17.8,159.1l0.2,2l148.5,64.9l130.5-96.1l-17.8-159.1L2271.6,410.4z
		 M2158.2,659.5l-141.1-61.7l-17.1-153l124-91.3l141.1,61.7l17.1,153L2158.2,659.5z"/>
	<path class="st3" d="M2034.6,1892L2454,1705l-358.8-240.8L2034.6,1892z M2439.6,1703.8l-396.3,176.7l57.3-404.3L2439.6,1703.8z"/>
</g>
</svg>
