<?xml version="1.0" encoding="utf-8"?>
<!-- Generator: Adobe Illustrator 21.0.0, SVG Export Plug-In . SVG Version: 6.00 Build 0)  -->
<svg version="1.1" id="Layer_1" xmlns="http://www.w3.org/2000/svg" xmlns:xlink="http://www.w3.org/1999/xlink" x="0px" y="0px"
	 width="3000px" height="2000px" viewBox="0 0 3000 2000" style="enable-background:new 0 0 3000 2000;" xml:space="preserve">
<style type="text/css">
	.st0{fill:#7ACEBE;}
	.st1{fill:#F05567;}
	.st2{fill:#FFF6A9;}
	.st3{fill:#FEF2DA;}
	.st4{fill:#6ABFAF;}
	.st5{fill:#FFFFFF;}
</style>
<g>
	<rect class="st0" width="3000" height="2000"/>
	<polygon class="st1" points="0,1662.7 0,2000 359.9,2000 2537.4,0 812.4,0 	"/>
	<polygon class="st2" points="1106.2,1314.6 1298.8,2000 3000,2000 3000,1213.3 1500,952.9 	"/>
	<g>
		<circle class="st3" cx="314.1" cy="115.2" r="9.4"/>
		<circle class="st3" cx="363.5" cy="115.2" r="9.4"/>
		<circle class="st3" cx="412.9" cy="115.2" r="9.4"/>
		<circle class="st3" cx="462.3" cy="115.2" r="9.4"/>
		<circle class="st3" cx="511.7" cy="115.2" r="9.4"/>
		<circle class="st3" cx="561" cy="115.2" r="9.4"/>
		<circle class="st3" cx="610.4" cy="115.2" r="9.4"/>
		<circle class="st3" cx="659.8" cy="115.2" r="9.4"/>
		<circle class="st3" cx="709.2" cy="115.2" r="9.4"/>
		<circle class="st3" cx="758.6" cy="115.2" r="9.4"/>
		<circle class="st3" cx="808" cy="115.2" r="9.4"/>
		<circle class="st3" cx="314.1" cy="195.9" r="9.4"/>
		<circle class="st3" cx="363.5" cy="195.9" r="9.4"/>
		<circle class="st3" cx="412.9" cy="195.9" r="9.4"/>
		<circle class="st3" cx="462.3" cy="195.9" r="9.4"/>
		<circle class="st3" cx="511.7" cy="195.9" r="9.4"/>
		<circle class="st3" cx="561" cy="195.9" r="9.4"/>
		<circle class="st3" cx="610.4" cy="195.9" r="9.4"/>
		<circle class="st3" cx="659.8" cy="195.9" r="9.4"/>
		<circle class="st3" cx="709.2" cy="195.9" r="9.4"/>
		<circle class="st3" cx="758.6" cy="195.9" r="9.4"/>
		<circle class="st3" cx="808" cy="195.9" r="9.4"/>
		<circle class="st3" cx="314.1" cy="276.7" r="9.4"/>
		<circle class="st3" cx="363.5" cy="276.7" r="9.4"/>
		<circle class="st3" cx="412.9" cy="276.7" r="9.4"/>
		<circle class="st3" cx="462.3" cy="276.7" r="9.4"/>
		<circle class="st3" cx="511.7" cy="276.7" r="9.4"/>
		<circle class="st3" cx="561" cy="276.7" r="9.4"/>
		<circle class="st3" cx="610.4" cy="276.7" r="9.4"/>
		<circle class="st3" cx="659.8" cy="276.7" r="9.4"/>
		<circle class="st3" cx="709.2" cy="276.7" r="9.4"/>
		<circle class="st3" cx="758.6" cy="276.7" r="9.4"/>
		<circle class="st3" cx="808" cy="276.7" r="9.4"/>
		<circle class="st3" cx="314.1" cy="357.4" r="9.4"/>
		<circle class="st3" cx="363.5" cy="357.4" r="9.4"/>
		<circle class="st3" cx="412.9" cy="357.4" r="9.4"/>
		<circle class="st3" cx="462.3" cy="357.4" r="9.4"/>
		<circle class="st3" cx="511.7" cy="357.4" r="9.4"/>
		<circle class="st3" cx="561" cy="357.4" r="9.4"/>
		<circle class="st3" cx="610.4" cy="357.4" r="9.4"/>
		<circle class="st3" cx="659.8" cy="357.4" r="9.4"/>
		<circle class="st3" cx="709.2" cy="357.4" r="9.4"/>
		<circle class="st3" cx="758.6" cy="357.4" r="9.4"/>
		<circle class="st3" cx="808" cy="357.4" r="9.4"/>
		<circle class="st3" cx="314.1" cy="435" r="9.4"/>
		<circle class="st3" cx="363.5" cy="435" r="9.4"/>
		<circle class="st3" cx="412.9" cy="435" r="9.4"/>
		<circle class="st3" cx="462.3" cy="435" r="9.4"/>
		<circle class="st3" cx="511.7" cy="435" r="9.4"/>
		<circle class="st3" cx="561" cy="435" r="9.4"/>
		<circle class="st3" cx="610.4" cy="435" r="9.4"/>
		<circle class="st3" cx="659.8" cy="435" r="9.4"/>
		<circle class="st3" cx="709.2" cy="435" r="9.4"/>
		<circle class="st3" cx="758.6" cy="435" r="9.4"/>
		<circle class="st3" cx="808" cy="435" r="9.4"/>
		<circle class="st3" cx="314.1" cy="512.6" r="9.4"/>
		<circle class="st3" cx="363.5" cy="512.6" r="9.4"/>
		<circle class="st3" cx="412.9" cy="512.6" r="9.4"/>
		<circle class="st3" cx="462.3" cy="512.6" r="9.4"/>
		<circle class="st3" cx="511.7" cy="512.6" r="9.4"/>
		<circle class="st3" cx="561" cy="512.6" r="9.4"/>
		<circle class="st3" cx="610.4" cy="512.6" r="9.4"/>
		<circle class="st3" cx="659.8" cy="512.6" r="9.4"/>
		<circle class="st3" cx="709.2" cy="512.6" r="9.4"/>
		<circle class="st3" cx="758.6" cy="512.6" r="9.4"/>
		<circle class="st3" cx="808" cy="512.6" r="9.4"/>
		<circle class="st3" cx="314.1" cy="590.2" r="9.4"/>
		<circle class="st3" cx="363.5" cy="590.2" r="9.4"/>
		<circle class="st3" cx="412.9" cy="590.2" r="9.4"/>
		<circle class="st3" cx="462.3" cy="590.2" r="9.4"/>
		<circle class="st3" cx="511.7" cy="590.2" r="9.4"/>
		<circle class="st3" cx="561" cy="590.2" r="9.4"/>
		<circle class="st3" cx="610.4" cy="590.2" r="9.4"/>
		<circle class="st3" cx="659.8" cy="590.2" r="9.4"/>
		<circle class="st3" cx="709.2" cy="590.2" r="9.4"/>
		<circle class="st3" cx="758.6" cy="590.2" r="9.4"/>
		<circle class="st3" cx="808" cy="590.2" r="9.4"/>
	</g>
	<g>
		<path class="st3" d="M52.5,1358.7l286.6,166c5.1-4,9.9-8.3,14.6-12.9L56.4,1339.7C54.8,1346,53.5,1352.3,52.5,1358.7z"/>
		<path class="st3" d="M62.4,1321.1l304.3,176.2c3.9-4.8,7.5-9.8,10.9-15L70,1304.2C67.2,1309.7,64.6,1315.4,62.4,1321.1z"/>
		<path class="st3" d="M51.3,1401.4l251.3,145.5c6.6-3,13-6.4,19.2-10.2l-271.2-157C50.4,1386.9,50.7,1394.2,51.3,1401.4z"/>
		<path class="st3" d="M204.4,1208.6c-9.1,1.2-18,3.2-26.8,5.8l224.2,129.9c-2.1-8.9-4.9-17.6-8.3-26.1L204.4,1208.6z"/>
		<path class="st3" d="M63.6,1451.8l189.2,109.6c9.1-1.2,18-3.2,26.8-5.8L55.3,1425.7C57.4,1434.6,60.2,1443.3,63.6,1451.8z"/>
		<path class="st3" d="M79.6,1287.7l307.7,178.2c2.8-5.6,5.4-11.2,7.6-16.9L90.5,1272.7C86.6,1277.4,83,1282.4,79.6,1287.7z"/>
		<path class="st3" d="M317.8,1230.9c-24.5-14.2-51.1-21.9-77.6-23.6l136.7,79.2C362.2,1264.4,342.4,1245.2,317.8,1230.9z"/>
		<path class="st3" d="M139.4,1539c24.5,14.2,51.1,21.9,77.6,23.6l-136.7-79.2C95,1505.6,114.9,1524.8,139.4,1539z"/>
		<path class="st3" d="M103.6,1258.2l297.2,172.1c1.7-6.3,3-12.7,3.9-19l-286.6-166C113.1,1249.3,108.2,1253.7,103.6,1258.2z"/>
		<path class="st3" d="M154.6,1223.1c-6.6,3-13,6.4-19.2,10.2l271.2,157c0.2-7.3,0-14.5-0.7-21.7L154.6,1223.1z"/>
	</g>
	<g>
		<g>
			<circle class="st4" cx="2849.7" cy="290" r="8"/>
			<circle class="st4" cx="2849.7" cy="327.8" r="8"/>
			<circle class="st4" cx="2849.7" cy="252.1" r="8"/>
			<circle class="st4" cx="2849.7" cy="403.5" r="8"/>
			<circle class="st4" cx="2849.7" cy="365.7" r="8"/>
			<circle class="st4" cx="2975.7" cy="252.1" r="8"/>
			<circle class="st4" cx="2849.7" cy="220.2" r="8"/>
			<circle class="st4" cx="2849.7" cy="441.4" r="8"/>
			<circle class="st4" cx="2891.7" cy="327.8" r="8"/>
			<circle class="st4" cx="2975.7" cy="365.7" r="8"/>
			<circle class="st4" cx="2975.7" cy="327.8" r="8"/>
			<circle class="st4" cx="2849.7" cy="723" r="8"/>
			<circle class="st4" cx="2849.7" cy="688.7" r="8"/>
			<circle class="st4" cx="2891.7" cy="220.2" r="8"/>
			<circle class="st4" cx="2849.7" cy="479.2" r="8"/>
			<circle class="st4" cx="2891.7" cy="252.1" r="8"/>
			<circle class="st4" cx="2849.7" cy="654.4" r="8"/>
			<circle class="st4" cx="2849.7" cy="517.1" r="8"/>
			<circle class="st4" cx="2849.7" cy="551.4" r="8"/>
			<circle class="st4" cx="2849.7" cy="620.1" r="8"/>
			<circle class="st4" cx="2849.7" cy="585.7" r="8"/>
			<circle class="st4" cx="2891.7" cy="290" r="8"/>
			<circle class="st4" cx="2975.7" cy="403.5" r="8"/>
			<circle class="st4" cx="2975.7" cy="551.4" r="8"/>
			<circle class="st4" cx="2975.7" cy="517.1" r="8"/>
			<circle class="st4" cx="2975.7" cy="479.2" r="8"/>
			<circle class="st4" cx="2975.7" cy="585.7" r="8"/>
			<circle class="st4" cx="2975.7" cy="441.4" r="8"/>
			<circle class="st4" cx="2975.7" cy="620.1" r="8"/>
			<circle class="st4" cx="2975.7" cy="723" r="8"/>
			<circle class="st4" cx="2975.7" cy="654.4" r="8"/>
			<circle class="st4" cx="2975.7" cy="688.7" r="8"/>
			<circle class="st4" cx="2849.7" cy="757.4" r="8"/>
			<circle class="st4" cx="2933.7" cy="757.4" r="8"/>
			<circle class="st4" cx="2933.7" cy="723" r="8"/>
			<circle class="st4" cx="2933.7" cy="688.7" r="8"/>
			<circle class="st4" cx="2891.7" cy="365.7" r="8"/>
			<circle class="st4" cx="2891.7" cy="723" r="8"/>
			<circle class="st4" cx="2891.7" cy="654.4" r="8"/>
			<circle class="st4" cx="2891.7" cy="757.4" r="8"/>
			<circle class="st4" cx="2891.7" cy="688.7" r="8"/>
			<circle class="st4" cx="2891.7" cy="585.7" r="8"/>
			<circle class="st4" cx="2891.7" cy="620.1" r="8"/>
			<circle class="st4" cx="2891.7" cy="403.5" r="8"/>
			<circle class="st4" cx="2891.7" cy="551.4" r="8"/>
			<circle class="st4" cx="2891.7" cy="441.4" r="8"/>
			<circle class="st4" cx="2891.7" cy="479.2" r="8"/>
			<circle class="st4" cx="2891.7" cy="517.1" r="8"/>
			<circle class="st4" cx="2933.7" cy="403.5" r="8"/>
			<circle class="st4" cx="2933.7" cy="517.1" r="8"/>
			<circle class="st4" cx="2933.7" cy="551.4" r="8"/>
			<circle class="st4" cx="2933.7" cy="252.1" r="8"/>
			<circle class="st4" cx="2933.7" cy="479.2" r="8"/>
			<circle class="st4" cx="2933.7" cy="620.1" r="8"/>
			<circle class="st4" cx="2933.7" cy="585.7" r="8"/>
			<circle class="st4" cx="2933.7" cy="327.8" r="8"/>
			<circle class="st4" cx="2933.7" cy="290" r="8"/>
			<circle class="st4" cx="2933.7" cy="654.4" r="8"/>
			<circle class="st4" cx="2933.7" cy="441.4" r="8"/>
			<circle class="st4" cx="2933.7" cy="365.7" r="8"/>
			<circle class="st4" cx="2975.7" cy="290" r="8"/>
			<circle class="st4" cx="2807.7" cy="441.4" r="8"/>
			<circle class="st4" cx="2807.7" cy="688.7" r="8"/>
			<circle class="st4" cx="2807.7" cy="327.8" r="8"/>
			<circle class="st4" cx="2807.7" cy="365.7" r="8"/>
			<circle class="st4" cx="2807.7" cy="479.2" r="8"/>
			<circle class="st4" cx="2807.7" cy="551.4" r="8"/>
			<circle class="st4" cx="2807.7" cy="654.4" r="8"/>
			<circle class="st4" cx="2807.7" cy="620.1" r="8"/>
			<circle class="st4" cx="2807.7" cy="585.7" r="8"/>
			<circle class="st4" cx="2807.7" cy="252.1" r="8"/>
			<circle class="st4" cx="2807.7" cy="517.1" r="8"/>
			<circle class="st4" cx="2807.7" cy="403.5" r="8"/>
			<circle class="st4" cx="2765.7" cy="517.1" r="8"/>
			<circle class="st4" cx="2765.7" cy="585.7" r="8"/>
			<circle class="st4" cx="2765.7" cy="551.4" r="8"/>
			<circle class="st4" cx="2765.7" cy="479.2" r="8"/>
			<circle class="st4" cx="2765.7" cy="441.4" r="8"/>
			<circle class="st4" cx="2765.7" cy="688.7" r="8"/>
			<circle class="st4" cx="2765.7" cy="757.4" r="8"/>
			<circle class="st4" cx="2765.7" cy="723" r="8"/>
			<circle class="st4" cx="2765.7" cy="620.1" r="8"/>
			<circle class="st4" cx="2765.7" cy="403.5" r="8"/>
			<circle class="st4" cx="2765.7" cy="654.4" r="8"/>
			<circle class="st4" cx="2807.7" cy="290" r="8"/>
			<circle class="st4" cx="2597.7" cy="551.4" r="8"/>
			<circle class="st4" cx="2597.7" cy="365.7" r="8"/>
			<circle class="st4" cx="2597.7" cy="441.4" r="8"/>
			<circle class="st4" cx="2723.7" cy="723" r="8"/>
			<circle class="st4" cx="2597.7" cy="585.7" r="8"/>
			<circle class="st4" cx="2597.7" cy="517.1" r="8"/>
			<circle class="st4" cx="2597.7" cy="327.8" r="8"/>
			<circle class="st4" cx="2597.7" cy="620.1" r="8"/>
			<circle class="st4" cx="2597.7" cy="654.4" r="8"/>
			<circle class="st4" cx="2597.7" cy="403.5" r="8"/>
			<circle class="st4" cx="2555.7" cy="517.1" r="8"/>
			<circle class="st4" cx="2807.7" cy="220.2" r="8"/>
			<circle class="st4" cx="2807.7" cy="757.4" r="8"/>
			<circle class="st4" cx="2555.7" cy="551.4" r="8"/>
			<circle class="st4" cx="2807.7" cy="723" r="8"/>
			<circle class="st4" cx="2555.7" cy="479.2" r="8"/>
			<circle class="st4" cx="2555.7" cy="585.7" r="8"/>
			<circle class="st4" cx="2555.7" cy="403.5" r="8"/>
			<circle class="st4" cx="2555.7" cy="441.4" r="8"/>
			<circle class="st4" cx="2597.7" cy="479.2" r="8"/>
			<circle class="st4" cx="2681.7" cy="654.4" r="8"/>
			<circle class="st4" cx="2681.7" cy="723" r="8"/>
			<circle class="st4" cx="2681.7" cy="688.7" r="8"/>
			<circle class="st4" cx="2723.7" cy="327.8" r="8"/>
			<circle class="st4" cx="2723.7" cy="252.1" r="8"/>
			<circle class="st4" cx="2723.7" cy="290" r="8"/>
			<circle class="st4" cx="2681.7" cy="517.1" r="8"/>
			<circle class="st4" cx="2681.7" cy="479.2" r="8"/>
			<circle class="st4" cx="2681.7" cy="620.1" r="8"/>
			<circle class="st4" cx="2681.7" cy="585.7" r="8"/>
			<circle class="st4" cx="2681.7" cy="551.4" r="8"/>
			<circle class="st4" cx="2723.7" cy="479.2" r="8"/>
			<circle class="st4" cx="2723.7" cy="585.7" r="8"/>
			<circle class="st4" cx="2723.7" cy="654.4" r="8"/>
			<circle class="st4" cx="2723.7" cy="620.1" r="8"/>
			<circle class="st4" cx="2723.7" cy="365.7" r="8"/>
			<circle class="st4" cx="2723.7" cy="757.4" r="8"/>
			<circle class="st4" cx="2723.7" cy="688.7" r="8"/>
			<circle class="st4" cx="2723.7" cy="403.5" r="8"/>
			<circle class="st4" cx="2723.7" cy="551.4" r="8"/>
			<circle class="st4" cx="2723.7" cy="441.4" r="8"/>
			<circle class="st4" cx="2681.7" cy="441.4" r="8"/>
			<circle class="st4" cx="2723.7" cy="517.1" r="8"/>
			<circle class="st4" cx="2765.7" cy="327.8" r="8"/>
			<circle class="st4" cx="2639.7" cy="403.5" r="8"/>
			<circle class="st4" cx="2639.7" cy="688.7" r="8"/>
			<circle class="st4" cx="2639.7" cy="327.8" r="8"/>
			<circle class="st4" cx="2639.7" cy="365.7" r="8"/>
			<circle class="st4" cx="2639.7" cy="290" r="8"/>
			<circle class="st4" cx="2765.7" cy="365.7" r="8"/>
			<circle class="st4" cx="2765.7" cy="290" r="8"/>
			<circle class="st4" cx="2765.7" cy="220.2" r="8"/>
			<circle class="st4" cx="2765.7" cy="252.1" r="8"/>
			<circle class="st4" cx="2639.7" cy="517.1" r="8"/>
			<circle class="st4" cx="2681.7" cy="290" r="8"/>
			<circle class="st4" cx="2681.7" cy="252.1" r="8"/>
			<circle class="st4" cx="2681.7" cy="365.7" r="8"/>
			<circle class="st4" cx="2639.7" cy="620.1" r="8"/>
			<circle class="st4" cx="2681.7" cy="327.8" r="8"/>
			<circle class="st4" cx="2639.7" cy="441.4" r="8"/>
			<circle class="st4" cx="2681.7" cy="403.5" r="8"/>
			<circle class="st4" cx="2639.7" cy="654.4" r="8"/>
			<circle class="st4" cx="2639.7" cy="479.2" r="8"/>
			<circle class="st4" cx="2639.7" cy="585.7" r="8"/>
			<circle class="st4" cx="2639.7" cy="551.4" r="8"/>
		</g>
	</g>
	<g>
		<rect x="2080.4" y="600" class="st3" width="919.6" height="312.9"/>
		<g>
			<g>
				<polygon class="st0" points="2191.7,742.3 2170.4,638.7 2150.2,638.7 2150.2,768.4 2162.8,768.4 2162.8,665 2184.3,768.3 
					2198.2,768.3 2218.8,664.1 2218.8,768.4 2232.5,768.4 2232.5,638.7 2212.3,638.7 				"/>
				<polygon class="st0" points="2265.9,768.4 2319.3,768.4 2319.3,755.3 2280.3,755.3 2280.3,709.1 2312,709.1 2312,696.1 
					2280.3,696.1 2280.3,651.8 2319.3,651.8 2319.3,638.7 2265.9,638.7 				"/>
				<polygon class="st0" points="2392.5,742.3 2371.2,638.7 2351,638.7 2351,768.4 2363.6,768.4 2363.6,665 2385.1,768.3 
					2399,768.3 2419.6,664.1 2419.6,768.4 2433.3,768.4 2433.3,638.7 2413.1,638.7 				"/>
				<path class="st0" d="M2495,638.7h-28.4v129.8h14.5v-51.2h12.8c20.6,0,30.2-10.8,30.2-31.3v-15.6
					C2524.1,650.7,2515.4,638.7,2495,638.7z M2509.8,686.9c0,12.4-5.2,17.4-15.9,17.4h-12.8v-52.5h13.9c10.6,0,14.8,5.9,14.8,17.8
					V686.9z"/>
				<polygon class="st0" points="2600.9,697.1 2569,697.1 2569,638.7 2554.5,638.7 2554.5,768.4 2569,768.4 2569,710.1 
					2600.9,710.1 2600.9,768.4 2615.3,768.4 2615.3,638.7 2600.9,638.7 				"/>
				<rect x="2648.7" y="638.7" class="st0" width="14.5" height="129.8"/>
				<path class="st0" d="M2709.3,668.9c0-11.5,4.4-18.4,14.8-18.4s14.8,6.9,14.8,18.5v4.3h13.7v-3.5c0-19.7-9.3-32.4-28.9-32.4
					c-19.5,0-28.7,12.4-28.7,32.4c0,36.5,43.4,39.3,43.4,68.2c0,11.7-4.8,18.5-15.2,18.5c-10.4,0-15.2-6.9-15.2-18.5v-8.2h-13.5v7.4
					c0,19.7,9.3,32.4,29.1,32.4c19.8,0,29.3-12.8,29.3-32.4C2752.9,700.8,2709.3,698,2709.3,668.9z"/>
			</g>
		</g>
		<g>
			<g>
				<path class="st0" d="M2175.7,832.9c4.4-2.1,6.4-6.2,6.4-12.8v-2.3c0-9.8-4.4-14.6-14.8-14.6h-15v63.4h15.7
					c10,0,15.1-5.3,15.1-15v-5.2C2183.1,839.8,2181,835,2175.7,832.9z M2162.3,812.4h4.8c3.5,0,5.1,2,5.1,6.5v3.5
					c0,5.1-2.3,6.7-6,6.7h-3.9V812.4z M2173.1,851.4c0,4.7-1.8,6.2-5.2,6.2h-5.7v-19.5h4.4c4.5,0,6.4,1.8,6.4,7.7V851.4z"/>
				<path class="st0" d="M2223.7,803.3l-10.1,63.4h9.1l1.7-11.5h12.2l1.7,11.5h10.1l-10.1-63.4H2223.7z M2225.7,846.6l4.8-32.1
					l4.8,32.1H2225.7z"/>
				<path class="st0" d="M2294.3,802.6c-9.8,0-14.8,5.8-14.8,15.9v33c0,10.1,5.1,15.9,14.8,15.9c9.8,0,14.8-5.8,14.8-15.9v-8.4h-9.4
					v9.1c0,4.5-2,6.2-5.2,6.2s-5.2-1.6-5.2-6.2v-34.2c0-4.5,2-6.2,5.2-6.2s5.2,1.7,5.2,6.2v6.8h9.4v-6.2
					C2309.1,808.4,2304.1,802.6,2294.3,802.6z"/>
				<polygon class="st0" points="2365.4,803.3 2352.3,830.9 2352.3,803.3 2342.4,803.3 2342.4,866.7 2352.3,866.7 2352.3,847.2 
					2355.4,841.4 2365.1,866.7 2375.3,866.7 2361.5,831.6 2375.3,803.3 				"/>
				<path class="st0" d="M2420.4,802.6c-9.8,0-14.8,5.8-14.8,15.9v33c0,10.1,5.1,15.9,14.8,15.9c9.8,0,14.8-5.8,14.8-15.9v-20.1
					h-13.9v9.1h4.5v11.7c0,4.5-2,6.2-5.2,6.2s-5.2-1.6-5.2-6.2v-34.2c0-4.5,2-6.2,5.2-6.2s5.2,1.7,5.2,6.2v6.8h9.4v-6.2
					C2435.3,808.4,2430.2,802.6,2420.4,802.6z"/>
				<path class="st0" d="M2498.7,849.2c0-6.6-1.6-11.4-6.6-13.5c4.4-2.1,6.5-6.3,6.5-12.9v-5c0-9.8-4.4-14.6-14.8-14.6h-15v63.4h10
					v-25.8h3.4c4.5,0,6.5,2.2,6.5,8.1v10c0,5.2,0.4,6.2,0.9,7.8h10.1c-1-2.4-1.1-4.6-1.1-7.7V849.2z M2488.7,825.1
					c0,5.1-2.3,6.7-6,6.7h-3.9v-19.5h4.8c3.5,0,5.1,2,5.1,6.5V825.1z"/>
				<path class="st0" d="M2546.7,802.6c-9.8,0-15.1,5.8-15.1,15.9v33c0,10.1,5.3,15.9,15.1,15.9c9.8,0,15.1-5.8,15.1-15.9v-33
					C2561.8,808.4,2556.5,802.6,2546.7,802.6z M2551.9,852.1c0,4.5-2,6.2-5.2,6.2s-5.2-1.7-5.2-6.2v-34.2c0-4.5,2-6.2,5.2-6.2
					s5.2,1.7,5.2,6.2V852.1z"/>
				<path class="st0" d="M2615.3,852.2c0,4.5-2,6.2-5.2,6.2c-3.2,0-5.2-1.6-5.2-6.2v-48.9h-10v48.3c0,10.1,5.1,15.9,14.8,15.9
					s14.8-5.8,14.8-15.9v-48.3h-9.4V852.2z"/>
				<polygon class="st0" points="2681.3,841.2 2671,803.3 2658.5,803.3 2658.5,866.7 2667.5,866.7 2667.5,820.8 2679.9,866.7 
					2690.1,866.7 2690.1,803.3 2681.3,803.3 				"/>
				<path class="st0" d="M2740.2,803.3h-15.8v63.4h15.8c10,0,14.8-5.5,14.8-15.7V819C2755.1,808.8,2750.2,803.3,2740.2,803.3z
					 M2745.1,851.5c0,4.5-1.9,6.2-5.1,6.2h-5.6v-45.3h5.6c3.2,0,5.1,1.6,5.1,6.2V851.5z"/>
			</g>
		</g>
	</g>
	<g>
		<path class="st5" d="M790.8,671.8c-11,0-21.2,4.3-29,12c-9.4,9.4-24.6,9.4-33.9,0c-16-16-42-16-58,0c-9.4,9.4-24.6,9.4-33.9,0
			c-7.7-7.7-18-12-29-12s-21.2,4.3-29,12c-9.4,9.4-24.6,9.4-33.9,0c-16-16-42-16-58,0c-9.4,9.4-24.6,9.4-33.9,0c-16-16-42-16-58,0
			c-9.4,9.4-24.6,9.4-33.9,0c-7.7-7.7-18-12-29-12c-11,0-21.2,4.3-29,12c-3.3,3.3-3.3,8.7,0,12c3.3,3.3,8.7,3.3,12,0
			c9.4-9.4,24.6-9.4,33.9,0c16,16,42,16,58,0c9.4-9.4,24.6-9.4,33.9,0c16,16,42,16,58,0c4.5-4.5,10.6-7,17-7s12.4,2.5,17,7
			c16,16,42,16,58,0c4.5-4.5,10.6-7,17-7s12.4,2.5,17,7c7.7,7.7,18,12,29,12c11,0,21.2-4.3,29-12c9.4-9.4,24.6-9.4,33.9,0
			c16,16,42,16,58,0c9.4-9.4,24.6-9.4,33.9,0c3.3,3.3,8.7,3.3,12,0c3.3-3.3,3.3-8.7,0-12C812.1,676,801.8,671.8,790.8,671.8z"/>
		<path class="st5" d="M790.8,757.2c-11,0-21.2,4.3-29,12c-9.4,9.4-24.6,9.4-33.9,0c-16-16-42-16-58,0c-9.4,9.4-24.6,9.4-33.9,0
			c-7.7-7.7-18-12-29-12s-21.2,4.3-29,12c-9.4,9.4-24.6,9.4-33.9,0c-16-16-42-16-58,0c-9.4,9.4-24.6,9.4-33.9,0c-16-16-42-16-58,0
			c-9.4,9.4-24.6,9.4-33.9,0c-7.7-7.7-18-12-29-12c-11,0-21.2,4.3-29,12c-3.3,3.3-3.3,8.7,0,12c3.3,3.3,8.7,3.3,12,0
			c9.4-9.4,24.6-9.4,33.9,0c16,16,42,16,58,0c9.4-9.4,24.6-9.4,33.9,0c16,16,42,16,58,0c4.5-4.5,10.6-7,17-7s12.4,2.5,17,7
			c16,16,42,16,58,0c4.5-4.5,10.6-7,17-7s12.4,2.5,17,7c7.7,7.7,18,12,29,12c11,0,21.2-4.3,29-12c9.4-9.4,24.6-9.4,33.9,0
			c16,16,42,16,58,0c9.4-9.4,24.6-9.4,33.9,0c3.3,3.3,8.7,3.3,12,0c3.3-3.3,3.3-8.7,0-12C812.1,761.5,801.8,757.2,790.8,757.2z"/>
		<path class="st5" d="M790.8,842.7c-11,0-21.2,4.3-29,12c-9.4,9.4-24.6,9.4-33.9,0c-16-16-42-16-58,0c-9.4,9.4-24.6,9.4-33.9,0
			c-7.7-7.7-18-12-29-12s-21.2,4.3-29,12c-9.4,9.4-24.6,9.4-33.9,0c-16-16-42-16-58,0c-9.4,9.4-24.6,9.4-33.9,0c-16-16-42-16-58,0
			c-9.4,9.4-24.6,9.4-33.9,0c-7.7-7.7-18-12-29-12c-11,0-21.2,4.3-29,12c-3.3,3.3-3.3,8.7,0,12c3.3,3.3,8.7,3.3,12,0
			c9.4-9.4,24.6-9.4,33.9,0c16,16,42,16,58,0c9.4-9.4,24.6-9.4,33.9,0c16,16,42,16,58,0c4.5-4.5,10.6-7,17-7s12.4,2.5,17,7
			c16,16,42,16,58,0c4.5-4.5,10.6-7,17-7s12.4,2.5,17,7c7.7,7.7,18,12,29,12c11,0,21.2-4.3,29-12c9.4-9.4,24.6-9.4,33.9,0
			c16,16,42,16,58,0c9.4-9.4,24.6-9.4,33.9,0c3.3,3.3,8.7,3.3,12,0c3.3-3.3,3.3-8.7,0-12C812.1,847,801.8,842.7,790.8,842.7z"/>
		<path class="st5" d="M790.8,928.2c-11,0-21.2,4.3-29,12c-9.4,9.4-24.6,9.4-33.9,0c-16-16-42-16-58,0c-9.4,9.4-24.6,9.4-33.9,0
			c-7.7-7.7-18-12-29-12s-21.2,4.3-29,12c-9.4,9.4-24.6,9.4-33.9,0c-16-16-42-16-58,0c-9.4,9.4-24.6,9.4-33.9,0c-16-16-42-16-58,0
			c-9.4,9.4-24.6,9.4-33.9,0c-7.7-7.7-18-12-29-12c-11,0-21.2,4.3-29,12c-3.3,3.3-3.3,8.7,0,12c3.3,3.3,8.7,3.3,12,0
			c9.4-9.4,24.6-9.4,33.9,0c16,16,42,16,58,0c9.4-9.4,24.6-9.4,33.9,0c16,16,42,16,58,0c4.5-4.5,10.6-7,17-7s12.4,2.5,17,7
			c16,16,42,16,58,0c4.5-4.5,10.6-7,17-7s12.4,2.5,17,7c7.7,7.7,18,12,29,12c11,0,21.2-4.3,29-12c9.4-9.4,24.6-9.4,33.9,0
			c16,16,42,16,58,0c9.4-9.4,24.6-9.4,33.9,0c3.3,3.3,8.7,3.3,12,0c3.3-3.3,3.3-8.7,0-12C812.1,932.4,801.8,928.2,790.8,928.2z"/>
		<path class="st5" d="M790.8,1013.6c-11,0-21.2,4.3-29,12c-9.4,9.4-24.6,9.4-33.9,0c-16-16-42-16-58,0c-9.4,9.4-24.6,9.4-33.9,0
			c-7.7-7.7-18-12-29-12s-21.2,4.3-29,12c-9.4,9.4-24.6,9.4-33.9,0c-16-16-42-16-58,0c-9.4,9.4-24.6,9.4-33.9,0c-16-16-42-16-58,0
			c-9.4,9.4-24.6,9.4-33.9,0c-7.7-7.7-18-12-29-12c-11,0-21.2,4.3-29,12c-3.3,3.3-3.3,8.7,0,12c3.3,3.3,8.7,3.3,12,0
			c9.4-9.4,24.6-9.4,33.9,0c16,16,42,16,58,0c9.4-9.4,24.6-9.4,33.9,0c16,16,42,16,58,0c4.5-4.5,10.6-7,17-7s12.4,2.5,17,7
			c16,16,42,16,58,0c4.5-4.5,10.6-7,17-7s12.4,2.5,17,7c7.7,7.7,18,12,29,12c11,0,21.2-4.3,29-12c9.4-9.4,24.6-9.4,33.9,0
			c16,16,42,16,58,0c9.4-9.4,24.6-9.4,33.9,0c3.3,3.3,8.7,3.3,12,0c3.3-3.3,3.3-8.7,0-12C812.1,1017.9,801.8,1013.6,790.8,1013.6z"
			/>
	</g>
	<g>
		<g>
			<path class="st0" d="M2917.6,1520c-11,0-21.2,4.3-29,12c-9.4,9.4-24.6,9.4-33.9,0c-16-16-42-16-58,0c-9.4,9.4-24.6,9.4-33.9,0
				c-7.7-7.7-18-12-29-12s-21.2,4.3-29,12c-9.4,9.4-24.6,9.4-33.9,0c-16-16-42-16-58,0c-9.4,9.4-24.6,9.4-33.9,0c-16-16-42-16-58,0
				c-9.4,9.4-24.6,9.4-33.9,0c-7.7-7.7-18-12-29-12c-11,0-21.2,4.3-29,12c-3.3,3.3-3.3,8.7,0,12c3.3,3.3,8.7,3.3,12,0
				c9.4-9.4,24.6-9.4,33.9,0c16,16,42,16,58,0c9.4-9.4,24.6-9.4,33.9,0c16,16,42,16,58,0c4.5-4.5,10.6-7,17-7s12.4,2.5,17,7
				c16,16,42,16,58,0c4.5-4.5,10.6-7,17-7s12.4,2.5,17,7c7.7,7.7,18,12,29,12c11,0,21.2-4.3,29-12c9.4-9.4,24.6-9.4,33.9,0
				c16,16,42,16,58,0c9.4-9.4,24.6-9.4,33.9,0c3.3,3.3,8.7,3.3,12,0c3.3-3.3,3.3-8.7,0-12C2938.9,1524.3,2928.6,1520,2917.6,1520z"
				/>
			<path class="st0" d="M2917.6,1605.5c-11,0-21.2,4.3-29,12c-9.4,9.4-24.6,9.4-33.9,0c-16-16-42-16-58,0c-9.4,9.4-24.6,9.4-33.9,0
				c-7.7-7.7-18-12-29-12s-21.2,4.3-29,12c-9.4,9.4-24.6,9.4-33.9,0c-16-16-42-16-58,0c-9.4,9.4-24.6,9.4-33.9,0c-16-16-42-16-58,0
				c-9.4,9.4-24.6,9.4-33.9,0c-7.7-7.7-18-12-29-12c-11,0-21.2,4.3-29,12c-3.3,3.3-3.3,8.7,0,12c3.3,3.3,8.7,3.3,12,0
				c9.4-9.4,24.6-9.4,33.9,0c16,16,42,16,58,0c9.4-9.4,24.6-9.4,33.9,0c16,16,42,16,58,0c4.5-4.5,10.6-7,17-7s12.4,2.5,17,7
				c16,16,42,16,58,0c4.5-4.5,10.6-7,17-7s12.4,2.5,17,7c7.7,7.7,18,12,29,12c11,0,21.2-4.3,29-12c9.4-9.4,24.6-9.4,33.9,0
				c16,16,42,16,58,0c9.4-9.4,24.6-9.4,33.9,0c3.3,3.3,8.7,3.3,12,0c3.3-3.3,3.3-8.7,0-12
				C2938.9,1609.7,2928.6,1605.5,2917.6,1605.5z"/>
			<path class="st0" d="M2917.6,1690.9c-11,0-21.2,4.3-29,12c-9.4,9.4-24.6,9.4-33.9,0c-16-16-42-16-58,0c-9.4,9.4-24.6,9.4-33.9,0
				c-7.7-7.7-18-12-29-12s-21.2,4.3-29,12c-9.4,9.4-24.6,9.4-33.9,0c-16-16-42-16-58,0c-9.4,9.4-24.6,9.4-33.9,0c-16-16-42-16-58,0
				c-9.4,9.4-24.6,9.4-33.9,0c-7.7-7.7-18-12-29-12c-11,0-21.2,4.3-29,12c-3.3,3.3-3.3,8.7,0,12c3.3,3.3,8.7,3.3,12,0
				c9.4-9.4,24.6-9.4,33.9,0c16,16,42,16,58,0c9.4-9.4,24.6-9.4,33.9,0c16,16,42,16,58,0c4.5-4.5,10.6-7,17-7s12.4,2.5,17,7
				c16,16,42,16,58,0c4.5-4.5,10.6-7,17-7s12.4,2.5,17,7c7.7,7.7,18,12,29,12c11,0,21.2-4.3,29-12c9.4-9.4,24.6-9.4,33.9,0
				c16,16,42,16,58,0c9.4-9.4,24.6-9.4,33.9,0c3.3,3.3,8.7,3.3,12,0c3.3-3.3,3.3-8.7,0-12
				C2938.9,1695.2,2928.6,1690.9,2917.6,1690.9z"/>
			<path class="st0" d="M2917.6,1776.4c-11,0-21.2,4.3-29,12c-9.4,9.4-24.6,9.4-33.9,0c-16-16-42-16-58,0c-9.4,9.4-24.6,9.4-33.9,0
				c-7.7-7.7-18-12-29-12s-21.2,4.3-29,12c-9.4,9.4-24.6,9.4-33.9,0c-16-16-42-16-58,0c-9.4,9.4-24.6,9.4-33.9,0c-16-16-42-16-58,0
				c-9.4,9.4-24.6,9.4-33.9,0c-7.7-7.7-18-12-29-12c-11,0-21.2,4.3-29,12c-3.3,3.3-3.3,8.7,0,12c3.3,3.3,8.7,3.3,12,0
				c9.4-9.4,24.6-9.4,33.9,0c16,16,42,16,58,0c9.4-9.4,24.6-9.4,33.9,0c16,16,42,16,58,0c4.5-4.5,10.6-7,17-7s12.4,2.5,17,7
				c16,16,42,16,58,0c4.5-4.5,10.6-7,17-7s12.4,2.5,17,7c7.7,7.7,18,12,29,12c11,0,21.2-4.3,29-12c9.4-9.4,24.6-9.4,33.9,0
				c16,16,42,16,58,0c9.4-9.4,24.6-9.4,33.9,0c3.3,3.3,8.7,3.3,12,0c3.3-3.3,3.3-8.7,0-12
				C2938.9,1780.7,2928.6,1776.4,2917.6,1776.4z"/>
			<path class="st0" d="M2917.6,1861.9c-11,0-21.2,4.3-29,12c-9.4,9.4-24.6,9.4-33.9,0c-16-16-42-16-58,0c-9.4,9.4-24.6,9.4-33.9,0
				c-7.7-7.7-18-12-29-12s-21.2,4.3-29,12c-9.4,9.4-24.6,9.4-33.9,0c-16-16-42-16-58,0c-9.4,9.4-24.6,9.4-33.9,0c-16-16-42-16-58,0
				c-9.4,9.4-24.6,9.4-33.9,0c-7.7-7.7-18-12-29-12c-11,0-21.2,4.3-29,12c-3.3,3.3-3.3,8.7,0,12c3.3,3.3,8.7,3.3,12,0
				c9.4-9.4,24.6-9.4,33.9,0c16,16,42,16,58,0c9.4-9.4,24.6-9.4,33.9,0c16,16,42,16,58,0c4.5-4.5,10.6-7,17-7s12.4,2.5,17,7
				c16,16,42,16,58,0c4.5-4.5,10.6-7,17-7s12.4,2.5,17,7c7.7,7.7,18,12,29,12c11,0,21.2-4.3,29-12c9.4-9.4,24.6-9.4,33.9,0
				c16,16,42,16,58,0c9.4-9.4,24.6-9.4,33.9,0c3.3,3.3,8.7,3.3,12,0c3.3-3.3,3.3-8.7,0-12
				C2938.9,1866.1,2928.6,1861.9,2917.6,1861.9z"/>
		</g>
	</g>
	<path class="st3" d="M1705.4,363.1c-59.6,0-108.1,48.5-108.1,108.1c0,59.6,48.5,108.1,108.1,108.1c59.6,0,108.1-48.5,108.1-108.1
		C1813.5,411.6,1765,363.1,1705.4,363.1z M1705.4,537.3c-36.4,0-66.1-29.7-66.1-66.1c0-36.4,29.7-66.1,66.1-66.1
		c36.4,0,66.1,29.7,66.1,66.1C1771.5,507.7,1741.8,537.3,1705.4,537.3z"/>
	<path class="st3" d="M601,1678c-59.6,0-108.1,48.5-108.1,108.1s48.5,108.1,108.1,108.1s108.1-48.5,108.1-108.1S660.6,1678,601,1678
		z M601,1852.2c-36.4,0-66.1-29.7-66.1-66.1s29.7-66.1,66.1-66.1s66.1,29.7,66.1,66.1S637.4,1852.2,601,1852.2z"/>
	<path class="st3" d="M601,1471.9c22.7,28.5,18,70.2-10.5,92.9c-28.5,22.7-70.2,18-92.9-10.5l-32.8,26.2
		c37.2,46.6,105.3,54.3,151.9,17.2c46.6-37.2,54.3-105.3,17.2-151.9L601,1471.9z"/>
	<path class="st3" d="M1834.8,284c-27.6-23.8-30.8-65.6-7-93.2l-31.8-27.4c-38.9,45.2-33.8,113.6,11.4,152.5
		c45.2,38.9,113.6,33.8,152.5-11.4L1928,277C1904.2,304.6,1862.4,307.8,1834.8,284z"/>
	<g>
		<path class="st3" d="M1134,942.1l452.9,298.3c8.6-6.1,17-12.6,25-19.7l-469.7-309.3C1138.9,921.5,1136.1,931.8,1134,942.1z"/>
		<path class="st3" d="M1153.7,881.6l480.9,316.7c6.8-7.4,13.2-15.2,19.3-23.5l-486.2-320.2C1162.5,863.5,1157.9,872.5,1153.7,881.6
			z"/>
		<path class="st3" d="M1128,1011.8l397.2,261.6c11-4.3,21.8-9.3,32.3-14.9L1129,976.2C1127.9,988.1,1127.6,1000,1128,1011.8z"/>
		<path class="st3" d="M1396.5,711.1c-14.9,1.2-29.8,3.5-44.3,7l354.4,233.4c-2.6-14.7-6.3-29.3-11.1-43.5L1396.5,711.1z"/>
		<path class="st3" d="M1143.4,1095.4l299,196.9c14.9-1.2,29.8-3.5,44.3-7l-354.4-233.4C1134.8,1066.7,1138.6,1081.2,1143.4,1095.4z
			"/>
		<path class="st3" d="M1184.9,828.6l486.2,320.2c5.2-8.8,9.8-17.8,14-27l-480.9-316.7C1197.4,812.5,1190.9,820.3,1184.9,828.6z"/>
		<path class="st3" d="M1579.7,758.2c-38.8-25.5-81.4-40.6-124.6-45.9l216,142.3C1649.2,817,1618.5,783.8,1579.7,758.2z"/>
		<path class="st3" d="M1259.1,1245.2c38.8,25.5,81.4,40.6,124.6,45.9l-216-142.3C1189.6,1186.4,1220.3,1219.6,1259.1,1245.2z"/>
		<path class="st3" d="M1226.9,782.7l469.7,309.3c3.3-10.2,6.1-20.4,8.2-30.8L1251.9,763C1243.3,769.1,1234.9,775.6,1226.9,782.7z"
			/>
		<path class="st3" d="M1313.6,730.1c-11,4.3-21.8,9.3-32.3,14.9l428.6,282.3c1-11.9,1.3-23.7,0.9-35.6L1313.6,730.1z"/>
	</g>
	<g>
		<path class="st3" d="M1327.4,127.2c-64.5,0-116.9,52.5-116.9,116.9c0,64.5,52.5,116.9,116.9,116.9s116.9-52.5,116.9-116.9
			C1444.3,179.6,1391.9,127.2,1327.4,127.2z M1327.4,349.2c-57.9,0-105.1-47.1-105.1-105.1s47.1-105.1,105.1-105.1
			c57.9,0,105.1,47.1,105.1,105.1S1385.3,349.2,1327.4,349.2z"/>
		<path class="st3" d="M1327.4,154.2c-49.6,0-90,40.4-90,90s40.4,90,90,90c49.6,0,90-40.4,90-90S1377,154.2,1327.4,154.2z
			 M1327.4,322.2c-43.1,0-78.1-35-78.1-78.1c0-43.1,35-78.1,78.1-78.1s78.1,35,78.1,78.1C1405.5,287.2,1370.4,322.2,1327.4,322.2z"
			/>
	</g>
	<g>
		<path class="st3" d="M2309.1,69.6c-64.5,0-116.9,52.5-116.9,116.9c0,64.5,52.5,116.9,116.9,116.9c64.5,0,116.9-52.5,116.9-116.9
			C2426.1,122,2373.6,69.6,2309.1,69.6z M2309.1,291.6c-57.9,0-105.1-47.1-105.1-105.1c0-57.9,47.1-105.1,105.1-105.1
			c57.9,0,105.1,47.1,105.1,105.1C2414.2,244.4,2367.1,291.6,2309.1,291.6z"/>
		<path class="st3" d="M2309.1,96.6c-49.6,0-90,40.4-90,90c0,49.6,40.4,90,90,90c49.6,0,90-40.4,90-90
			C2399.1,136.9,2358.7,96.6,2309.1,96.6z M2309.1,264.6c-43.1,0-78.1-35-78.1-78.1c0-43.1,35-78.1,78.1-78.1
			c43.1,0,78.1,35,78.1,78.1C2387.2,229.6,2352.2,264.6,2309.1,264.6z"/>
	</g>
	<g>
		<path class="st3" d="M1237.4,1659.5c-64.5,0-116.9,52.5-116.9,116.9c0,64.5,52.5,116.9,116.9,116.9c64.5,0,116.9-52.5,116.9-116.9
			C1354.4,1711.9,1301.9,1659.5,1237.4,1659.5z M1237.4,1881.4c-57.9,0-105.1-47.1-105.1-105.1c0-57.9,47.1-105.1,105.1-105.1
			c57.9,0,105.1,47.1,105.1,105.1C1342.5,1834.3,1295.4,1881.4,1237.4,1881.4z"/>
		<path class="st3" d="M1237.4,1686.4c-49.6,0-90,40.4-90,90c0,49.6,40.4,90,90,90c49.6,0,90-40.4,90-90
			C1327.4,1726.8,1287,1686.4,1237.4,1686.4z M1237.4,1854.5c-43.1,0-78.1-35-78.1-78.1c0-43.1,35-78.1,78.1-78.1
			c43.1,0,78.1,35,78.1,78.1C1315.5,1819.4,1280.5,1854.5,1237.4,1854.5z"/>
	</g>
	<g>
		<path class="st3" d="M186.2,1695.5c-64.5,0-116.9,52.5-116.9,116.9c0,64.5,52.5,116.9,116.9,116.9c64.5,0,116.9-52.5,116.9-116.9
			C303.1,1748,250.7,1695.5,186.2,1695.5z M186.2,1917.5c-57.9,0-105.1-47.1-105.1-105.1c0-57.9,47.1-105.1,105.1-105.1
			c57.9,0,105.1,47.1,105.1,105.1C291.3,1870.4,244.1,1917.5,186.2,1917.5z"/>
		<path class="st3" d="M186.2,1722.5c-49.6,0-90,40.4-90,90c0,49.6,40.4,90,90,90c49.6,0,90-40.4,90-90
			C276.2,1762.8,235.8,1722.5,186.2,1722.5z M186.2,1890.5c-43.1,0-78.1-35-78.1-78.1c0-43.1,35-78.1,78.1-78.1
			c43.1,0,78.1,35,78.1,78.1C264.3,1855.5,229.3,1890.5,186.2,1890.5z"/>
	</g>
</g>
</svg>
